<svg width="30" height="23" viewBox="0 0 30 23" fill="none" xmlns="http://www.w3.org/2000/svg">
<path d="M10.228 23C9.96891 23 9.72601 22.9568 9.49931 22.8703C9.2726 22.7853 9.06209 22.6398 8.86777 22.434L0.512035 13.5839C0.155783 13.2066 -0.0145706 12.7174 0.000974982 12.1164C0.017816 11.5168 0.204362 11.0283 0.560614 10.651C0.916866 10.2737 1.37028 10.085 1.92085 10.085C2.47142 10.085 2.92483 10.2737 3.28109 10.651L10.228 18.0089L26.6966 0.565996C27.0528 0.188665 27.5147 0 28.0821 0C28.6482 0 29.1094 0.188665 29.4656 0.565996C29.8219 0.943326 30 1.4318 30 2.03141C30 2.63239 29.8219 3.12155 29.4656 3.49888L11.5882 22.434C11.3939 22.6398 11.1834 22.7853 10.9567 22.8703C10.73 22.9568 10.4871 23 10.228 23Z" fill="white"/>
</svg>
