<svg width="38" height="38" viewBox="0 0 38 38" fill="none" xmlns="http://www.w3.org/2000/svg">
<path d="M19 24.6L7.33261 36.3C6.59501 37.0333 5.65624 37.4 4.51631 37.4C3.37637 37.4 2.43761 37.0333 1.70001 36.3C0.966673 35.5666 0.600006 34.6333 0.600006 33.5C0.600006 32.3666 0.966673 31.4333 1.70001 30.7L13.4 19L1.70001 7.43275C0.966673 6.69508 0.600006 5.75628 0.600006 4.61635C0.600006 3.47635 0.966673 2.53755 1.70001 1.79995C2.43334 1.06662 3.36667 0.699951 4.50001 0.699951C5.63334 0.699951 6.56667 1.06662 7.30001 1.79995L19 13.5L30.5672 1.79995C31.3049 1.06662 32.2437 0.699951 33.3836 0.699951C34.5236 0.699951 35.4624 1.06662 36.2 1.79995C37 2.59995 37.4 3.54995 37.4 4.64995C37.4 5.74995 37 6.66662 36.2 7.39995L24.5 19L36.2 30.6674C36.9333 31.405 37.3 32.3437 37.3 33.4837C37.3 34.6236 36.9333 35.5624 36.2 36.3C35.4 37.1 34.45 37.5 33.35 37.5C32.25 37.5 31.3333 37.1 30.6 36.3L19 24.6Z" fill="#545050"/>
</svg>
