<svg width="23" height="23" viewBox="0 0 23 23" fill="none" xmlns="http://www.w3.org/2000/svg">
<g clip-path="url(#clip0_925_1178)">
<path d="M11.5 1.91666C6.21002 1.91666 1.91669 6.20999 1.91669 11.5C1.91669 16.79 6.21002 21.0833 11.5 21.0833C16.79 21.0833 21.0834 16.79 21.0834 11.5C21.0834 6.20999 16.79 1.91666 11.5 1.91666ZM11.5 4.79166C13.0909 4.79166 14.375 6.07582 14.375 7.66666C14.375 9.25749 13.0909 10.5417 11.5 10.5417C9.90919 10.5417 8.62502 9.25749 8.62502 7.66666C8.62502 6.07582 9.90919 4.79166 11.5 4.79166ZM11.5 18.4C9.10419 18.4 6.98627 17.1733 5.75002 15.3142C5.77877 13.4071 9.58335 12.3625 11.5 12.3625C13.4071 12.3625 17.2213 13.4071 17.25 15.3142C16.0138 17.1733 13.8959 18.4 11.5 18.4Z" fill="#66524D"/>
</g>
<defs>
<clipPath id="clip0_925_1178">
<rect width="23" height="23" fill="white"/>
</clipPath>
</defs>
</svg>
